<svg width="172" height="177" viewBox="0 0 172 177" fill="none" xmlns="http://www.w3.org/2000/svg">
<path d="M35.5235 93.5472L35.5693 93.5166C37.1892 91.8939 39.1132 90.6066 41.2312 89.7282C43.3491 88.8499 45.6195 88.3978 47.9124 88.3978C50.2052 88.3978 52.4756 88.8499 54.5935 89.7282C56.7115 90.6066 58.6355 91.8939 60.2554 93.5166L60.3471 93.593L73.4468 107.151L104.767 75.8466C108.042 72.5768 112.481 70.7404 117.11 70.7404C121.738 70.7404 126.177 72.5768 129.453 75.8466L171.534 117.989V31.4422C171.534 14.1085 157.425 0 140.091 0H31.4422C14.1085 0 0 14.1085 0 31.4422V129.682L35.5235 93.5472ZM52.8878 33.5975C55.3728 33.5975 57.8021 34.3344 59.8683 35.715C61.9346 37.0957 63.545 39.058 64.496 41.3539C65.447 43.6498 65.6958 46.1761 65.211 48.6134C64.7262 51.0507 63.5296 53.2895 61.7724 55.0467C60.0151 56.8039 57.7763 58.0006 55.339 58.4854C52.9017 58.9702 50.3754 58.7214 48.0795 57.7704C45.7836 56.8194 43.8213 55.209 42.4407 53.1427C41.06 51.0765 40.3231 48.6472 40.3231 46.1622C40.3231 42.8298 41.6469 39.6339 44.0032 37.2776C46.3596 34.9213 49.5554 33.5975 52.8878 33.5975Z" fill="#BBBBBB"/>
<path d="M50.5032 103.208C49.8071 102.53 48.8731 102.152 47.9016 102.155C46.9301 102.158 45.9984 102.541 45.3062 103.223L0.290405 148.988C2.3998 164.304 15.5606 176.119 31.4422 176.119H120.985L50.5032 103.208Z" fill="#BBBBBB"/>
<path d="M119.731 85.5682C119.031 84.882 118.09 84.4977 117.11 84.4977C116.13 84.4977 115.188 84.882 114.488 85.5682L83.0155 117.056L140.107 176.119C157.441 176.119 171.534 162.011 171.534 144.677V137.462L119.731 85.5682Z" fill="#BBBBBB"/>
</svg>
