<svg width="18" height="18" viewBox="0 0 18 18" fill="none" xmlns="http://www.w3.org/2000/svg">
<path fill-rule="evenodd" clip-rule="evenodd" d="M14.2734 1.11841C13.8647 1.12825 13.4539 1.23699 13.077 1.45458C11.871 2.15089 11.4535 3.71036 12.1498 4.91638C12.1614 4.9365 12.174 4.956 12.186 4.97573L9.1988 7.74758C8.35625 7.12135 7.31436 6.75002 6.18746 6.75002C5.86763 6.75002 5.55503 6.78079 5.25142 6.83791L4.32197 4.63515C5.06875 4.03864 5.29219 2.95911 4.80098 2.1083C4.25998 1.17126 3.04527 0.846595 2.10824 1.38759C1.1712 1.9286 0.845424 3.14221 1.38643 4.07924C1.78136 4.76329 2.53551 5.12179 3.27827 5.05483L4.17037 7.1708C2.38078 7.95251 1.12496 9.73974 1.12496 11.8125C1.12495 13.3899 1.85207 14.8018 2.98823 15.7313C3.0553 15.8262 3.1501 15.898 3.25959 15.9368C4.08717 16.5263 5.09735 16.875 6.18746 16.875C7.31523 16.875 8.35811 16.5035 9.20101 15.8764C9.24847 15.8494 9.29177 15.8158 9.32953 15.7764C9.82425 15.3832 10.2435 14.9 10.5633 14.3514L12.9385 14.8931C12.9352 15.2332 13.0178 15.578 13.1989 15.8917C13.7399 16.8288 14.9546 17.1534 15.8917 16.6124C16.8287 16.0714 17.1545 14.8578 16.6135 13.9208C16.0725 12.9837 14.8578 12.658 13.9207 13.199C13.6496 13.3555 13.4307 13.5691 13.2681 13.8153L11.0247 13.3022C11.1704 12.8309 11.2499 12.3307 11.2499 11.8125C11.2499 11.6041 11.2362 11.3992 11.2115 11.1973L13.2 10.8446C13.7411 11.7808 14.955 12.1061 15.8916 11.5653C16.8287 11.0243 17.1534 9.8096 16.6124 8.87256C16.0714 7.93552 14.8577 7.61086 13.9207 8.15186C13.3276 8.49431 12.9802 9.10615 12.9418 9.74707L10.9511 10.1008C10.7398 9.51551 10.4234 8.97981 10.025 8.5166L12.9759 5.77771C13.7491 6.27139 14.7655 6.33143 15.6104 5.84363C16.8164 5.14733 17.235 3.58896 16.5387 2.38293C16.06 1.5538 15.1726 1.09675 14.2734 1.11841ZM6.18751 7.875C8.3688 7.875 10.125 9.63121 10.125 11.8125C10.125 12.8108 9.75649 13.7192 9.14834 14.4119C8.8052 13.7869 8.27007 13.282 7.62343 12.977C8.11968 12.5632 8.43751 11.9416 8.43751 11.25C8.43751 10.014 7.42349 8.99999 6.18751 9C4.95154 9 3.93751 10.014 3.93751 11.25C3.93751 11.9416 4.25535 12.5632 4.75161 12.977C4.10507 13.2822 3.56976 13.7868 3.2267 14.4119C2.61854 13.7192 2.25001 12.8109 2.25001 11.8125C2.25001 9.63121 4.00623 7.875 6.18751 7.875Z" fill="#70232F"/>
</svg>